<svg width="147" height="24" viewBox="0 0 147 24" fill="none" xmlns="http://www.w3.org/2000/svg">
<rect width="147" height="24" rx="3.56587" fill="white"/>
<path fill-rule="evenodd" clip-rule="evenodd" d="M15.9748 11.9095C16.31 7.82653 12.955 5.63679 10.0002 5.96484V8.78782C11.9241 8.35025 13.6124 10.0028 13.1462 11.9095H15.9748Z" fill="black"/>
<path fill-rule="evenodd" clip-rule="evenodd" d="M17.4402 11.9095C17.1051 7.82653 20.4601 5.63679 23.4149 5.96484V8.78782C21.4909 8.35025 19.8026 10.0028 20.2689 11.9095H17.4402Z" fill="black"/>
<path fill-rule="evenodd" clip-rule="evenodd" d="M15.3387 13.3112C15.0035 17.3942 18.3585 19.5839 21.3133 19.2559V16.4329C19.3894 16.8705 17.7011 15.2179 18.1673 13.3112H15.3387Z" fill="black"/>
<path d="M31.9087 7.78769L34.046 14.2517H34.1302L36.2635 7.78769H37.8995L35.0044 16H33.1678L30.2767 7.78769H31.9087ZM38.6912 16V9.84076H40.1428V16H38.6912ZM39.421 8.9666C39.1911 8.9666 38.9933 8.89041 38.8276 8.73804C38.6618 8.58299 38.5789 8.39719 38.5789 8.18066C38.5789 7.96145 38.6618 7.77566 38.8276 7.62328C38.9933 7.46823 39.1911 7.3907 39.421 7.3907C39.6536 7.3907 39.8514 7.46823 40.0145 7.62328C40.1802 7.77566 40.2631 7.96145 40.2631 8.18066C40.2631 8.39719 40.1802 8.58299 40.0145 8.73804C39.8514 8.89041 39.6536 8.9666 39.421 8.9666ZM44.1364 16.1203C43.5189 16.1203 42.9856 15.992 42.5365 15.7353C42.09 15.476 41.7465 15.1098 41.5059 14.6366C41.2653 14.1608 41.145 13.6007 41.145 12.9565C41.145 12.3229 41.2653 11.7669 41.5059 11.2883C41.7492 10.8072 42.0887 10.4329 42.5244 10.1656C42.9602 9.89557 43.4721 9.76057 44.0602 9.76057C44.4398 9.76057 44.798 9.82205 45.1349 9.94502C45.4744 10.0653 45.7738 10.2524 46.0331 10.5064C46.2951 10.7604 46.5009 11.0838 46.6506 11.4768C46.8003 11.8671 46.8752 12.3323 46.8752 12.8723V13.3174H41.8267V12.3389H45.4837C45.4811 12.0609 45.4209 11.8136 45.3033 11.5971C45.1857 11.3779 45.0213 11.2055 44.8101 11.0798C44.6016 10.9542 44.3583 10.8914 44.0803 10.8914C43.7835 10.8914 43.5229 10.9635 43.2983 11.1079C43.0738 11.2496 42.8987 11.4367 42.773 11.6693C42.6501 11.8992 42.5872 12.1518 42.5846 12.4272V13.2813C42.5846 13.6395 42.6501 13.9469 42.7811 14.2036C42.912 14.4575 43.0952 14.6527 43.3304 14.789C43.5657 14.9227 43.841 14.9895 44.1565 14.9895C44.3676 14.9895 44.5588 14.9601 44.7299 14.9013C44.901 14.8398 45.0493 14.7502 45.175 14.6326C45.3006 14.515 45.3955 14.3693 45.4597 14.1955L46.815 14.3479C46.7295 14.7061 46.5664 15.0189 46.3258 15.2862C46.0879 15.5509 45.7831 15.7567 45.4116 15.9038C45.04 16.0481 44.6149 16.1203 44.1364 16.1203ZM49.1154 16L47.3751 9.84076H48.8548L49.9375 14.1715H49.9936L51.1004 9.84076H52.564L53.6707 14.1474H53.7309L54.7975 9.84076H56.2812L54.5369 16H53.0251L51.8703 11.8377H51.7861L50.6312 16H49.1154ZM62.7195 9.84076V10.9635H59.1788V9.84076H62.7195ZM60.0529 8.36511H61.5045V14.1474C61.5045 14.3426 61.5339 14.4923 61.5927 14.5965C61.6542 14.6981 61.7344 14.7676 61.8333 14.805C61.9323 14.8425 62.0419 14.8612 62.1622 14.8612C62.253 14.8612 62.3359 14.8545 62.4108 14.8411C62.4883 14.8278 62.5471 14.8157 62.5872 14.805L62.8318 15.9399C62.7543 15.9666 62.6433 15.996 62.499 16.0281C62.3573 16.0601 62.1835 16.0789 61.9777 16.0842C61.6141 16.0949 61.2867 16.0401 60.9953 15.9198C60.7039 15.7968 60.4726 15.607 60.3016 15.3504C60.1331 15.0938 60.0503 14.773 60.0529 14.388V8.36511ZM65.4801 16.1243C65.0898 16.1243 64.7382 16.0548 64.4255 15.9158C64.1154 15.7741 63.8694 15.5656 63.6876 15.2902C63.5085 15.0149 63.419 14.6754 63.419 14.2717C63.419 13.9242 63.4831 13.6368 63.6115 13.4096C63.7398 13.1824 63.9149 13.0006 64.1368 12.8642C64.3586 12.7279 64.6086 12.625 64.8866 12.5555C65.1673 12.4833 65.4574 12.4312 65.7568 12.3991C66.1177 12.3617 66.4104 12.3283 66.6349 12.2988C66.8595 12.2668 67.0226 12.2186 67.1241 12.1545C67.2284 12.0877 67.2805 11.9847 67.2805 11.8457V11.8217C67.2805 11.5196 67.191 11.2857 67.0119 11.1199C66.8328 10.9542 66.5748 10.8713 66.238 10.8713C65.8824 10.8713 65.6004 10.9488 65.3919 11.1039C65.186 11.2589 65.047 11.4421 64.9748 11.6532L63.6195 11.4608C63.7264 11.0865 63.9028 10.7737 64.1488 10.5225C64.3947 10.2685 64.6955 10.0787 65.051 9.95304C65.4066 9.82472 65.7995 9.76057 66.2299 9.76057C66.5267 9.76057 66.8221 9.79532 67.1161 9.86482C67.4102 9.93433 67.6789 10.0493 67.9221 10.2097C68.1654 10.3674 68.3605 10.5826 68.5076 10.8553C68.6573 11.1279 68.7321 11.4688 68.7321 11.8778V16H67.3367V15.1539H67.2886C67.2003 15.325 67.076 15.4854 66.9156 15.6351C66.7579 15.7821 66.5588 15.9011 66.3182 15.992C66.0802 16.0802 65.8009 16.1243 65.4801 16.1243ZM65.857 15.0577C66.1484 15.0577 66.401 15.0002 66.6149 14.8852C66.8288 14.7676 66.9932 14.6126 67.1081 14.4201C67.2257 14.2276 67.2845 14.0178 67.2845 13.7905V13.0647C67.2391 13.1022 67.1616 13.1369 67.052 13.169C66.945 13.2011 66.8247 13.2291 66.6911 13.2532C66.5574 13.2773 66.4251 13.2987 66.2941 13.3174C66.1631 13.3361 66.0495 13.3521 65.9533 13.3655C65.7367 13.3949 65.5429 13.443 65.3718 13.5098C65.2007 13.5767 65.0657 13.6702 64.9668 13.7905C64.8679 13.9082 64.8184 14.0605 64.8184 14.2477C64.8184 14.515 64.916 14.7168 65.1112 14.8532C65.3063 14.9895 65.5549 15.0577 65.857 15.0577ZM74.8339 11.4688L73.5107 11.6131C73.4732 11.4795 73.4077 11.3538 73.3142 11.2362C73.2233 11.1186 73.1003 11.0237 72.9453 10.9515C72.7902 10.8793 72.6004 10.8432 72.3759 10.8432C72.0738 10.8432 71.8198 10.9087 71.614 11.0397C71.4108 11.1707 71.3106 11.3405 71.3132 11.549C71.3106 11.7281 71.3761 11.8738 71.5097 11.9861C71.6461 12.0983 71.8706 12.1906 72.1834 12.2628L73.234 12.4873C73.8168 12.613 74.2498 12.8121 74.5332 13.0848C74.8192 13.3575 74.9636 13.7143 74.9663 14.1554C74.9636 14.5431 74.85 14.8852 74.6254 15.182C74.4035 15.476 74.0948 15.7059 73.6991 15.8717C73.3035 16.0374 72.849 16.1203 72.3358 16.1203C71.5819 16.1203 70.9751 15.9626 70.5153 15.6471C70.0555 15.329 69.7814 14.8866 69.6932 14.3198L71.1087 14.1835C71.1729 14.4615 71.3092 14.6714 71.5177 14.8131C71.7263 14.9547 71.9976 15.0256 72.3318 15.0256C72.6766 15.0256 72.9533 14.9547 73.1618 14.8131C73.373 14.6714 73.4786 14.4963 73.4786 14.2878C73.4786 14.1113 73.4104 13.9656 73.2741 13.8507C73.1404 13.7357 72.9319 13.6475 72.6485 13.586L71.5979 13.3655C71.0071 13.2425 70.5701 13.0353 70.2867 12.7439C70.0033 12.4499 69.863 12.0783 69.8657 11.6292C69.863 11.2496 69.9659 10.9208 70.1744 10.6427C70.3856 10.3621 70.6783 10.1455 71.0526 9.99314C71.4295 9.83809 71.8639 9.76057 72.3558 9.76057C73.0776 9.76057 73.6457 9.91428 74.06 10.2217C74.4771 10.5291 74.735 10.9448 74.8339 11.4688ZM77.2607 14.0672L77.2567 12.3149H77.4892L79.7027 9.84076H81.3989L78.6762 12.8723H78.3754L77.2607 14.0672ZM75.9374 16V7.78769H77.389V16H75.9374ZM79.803 16L77.798 13.1971L78.7764 12.1745L81.5392 16H79.803ZM87.4022 16.1203C86.8007 16.1203 86.2794 15.988 85.8383 15.7233C85.3972 15.4587 85.0551 15.0884 84.8118 14.6126C84.5712 14.1367 84.4509 13.5807 84.4509 12.9444C84.4509 12.3082 84.5712 11.7508 84.8118 11.2723C85.0551 10.7938 85.3972 10.4222 85.8383 10.1575C86.2794 9.89289 86.8007 9.76057 87.4022 9.76057C88.0037 9.76057 88.525 9.89289 88.9661 10.1575C89.4072 10.4222 89.748 10.7938 89.9886 11.2723C90.2319 11.7508 90.3535 12.3082 90.3535 12.9444C90.3535 13.5807 90.2319 14.1367 89.9886 14.6126C89.748 15.0884 89.4072 15.4587 88.9661 15.7233C88.525 15.988 88.0037 16.1203 87.4022 16.1203ZM87.4102 14.9574C87.7364 14.9574 88.009 14.8679 88.2282 14.6888C88.4474 14.507 88.6105 14.2637 88.7174 13.959C88.827 13.6542 88.8819 13.3147 88.8819 12.9404C88.8819 12.5635 88.827 12.2227 88.7174 11.9179C88.6105 11.6105 88.4474 11.3659 88.2282 11.1841C88.009 11.0023 87.7364 10.9114 87.4102 10.9114C87.0761 10.9114 86.798 11.0023 86.5761 11.1841C86.3569 11.3659 86.1925 11.6105 86.0829 11.9179C85.976 12.2227 85.9225 12.5635 85.9225 12.9404C85.9225 13.3147 85.976 13.6542 86.0829 13.959C86.1925 14.2637 86.3569 14.507 86.5761 14.6888C86.798 14.8679 87.0761 14.9574 87.4102 14.9574ZM92.8113 12.3911V16H91.3597V9.84076H92.7471V10.8874H92.8193C92.961 10.5425 93.1869 10.2685 93.497 10.0653C93.8098 9.86215 94.1961 9.76057 94.6559 9.76057C95.0809 9.76057 95.4512 9.85146 95.7666 10.0332C96.0847 10.215 96.3307 10.4783 96.5044 10.8232C96.6809 11.168 96.7677 11.5864 96.7651 12.0783V16H95.3135V12.3029C95.3135 11.8912 95.2066 11.569 94.9927 11.3365C94.7815 11.1039 94.4888 10.9876 94.1145 10.9876C93.8606 10.9876 93.6347 11.0437 93.4368 11.156C93.2417 11.2656 93.088 11.4247 92.9757 11.6332C92.8661 11.8417 92.8113 12.0943 92.8113 12.3911ZM100.293 9.03477V7.78769H106.845V9.03477H104.307V16H102.832V9.03477H100.293ZM109.652 16.1203C109.035 16.1203 108.501 15.992 108.052 15.7353C107.606 15.476 107.262 15.1098 107.022 14.6366C106.781 14.1608 106.661 13.6007 106.661 12.9565C106.661 12.3229 106.781 11.7669 107.022 11.2883C107.265 10.8072 107.604 10.4329 108.04 10.1656C108.476 9.89557 108.988 9.76057 109.576 9.76057C109.956 9.76057 110.314 9.82205 110.651 9.94502C110.99 10.0653 111.289 10.2524 111.549 10.5064C111.811 10.7604 112.017 11.0838 112.166 11.4768C112.316 11.8671 112.391 12.3323 112.391 12.8723V13.3174H107.342V12.3389H110.999C110.997 12.0609 110.937 11.8136 110.819 11.5971C110.701 11.3779 110.537 11.2055 110.326 11.0798C110.117 10.9542 109.874 10.8914 109.596 10.8914C109.299 10.8914 109.039 10.9635 108.814 11.1079C108.589 11.2496 108.414 11.4367 108.289 11.6693C108.166 11.8992 108.103 12.1518 108.1 12.4272V13.2813C108.1 13.6395 108.166 13.9469 108.297 14.2036C108.428 14.4575 108.611 14.6527 108.846 14.789C109.081 14.9227 109.357 14.9895 109.672 14.9895C109.883 14.9895 110.074 14.9601 110.246 14.9013C110.417 14.8398 110.565 14.7502 110.691 14.6326C110.816 14.515 110.911 14.3693 110.975 14.1955L112.331 14.3479C112.245 14.7061 112.082 15.0189 111.842 15.2862C111.604 15.5509 111.299 15.7567 110.927 15.9038C110.556 16.0481 110.131 16.1203 109.652 16.1203ZM113.393 16V9.84076H114.781V10.8874H114.853C114.981 10.5345 115.194 10.2591 115.49 10.0613C115.787 9.86081 116.141 9.76057 116.553 9.76057C116.97 9.76057 117.321 9.86215 117.608 10.0653C117.896 10.2658 118.099 10.5398 118.217 10.8874H118.281C118.418 10.5452 118.647 10.2725 118.971 10.0693C119.297 9.86349 119.683 9.76057 120.13 9.76057C120.696 9.76057 121.159 9.93968 121.517 10.2979C121.875 10.6561 122.055 11.1787 122.055 11.8658V16H120.599V12.0903C120.599 11.708 120.497 11.4287 120.294 11.2523C120.091 11.0731 119.842 10.9836 119.548 10.9836C119.198 10.9836 118.924 11.0932 118.726 11.3124C118.531 11.5289 118.434 11.811 118.434 12.1585V16H117.01V12.0302C117.01 11.7121 116.914 11.4581 116.721 11.2683C116.532 11.0785 116.283 10.9836 115.975 10.9836C115.767 10.9836 115.577 11.0371 115.406 11.144C115.235 11.2482 115.099 11.3966 114.997 11.5891C114.895 11.7789 114.845 12.0008 114.845 12.2547V16H113.393ZM123.365 16V7.78769H124.817V10.8593H124.877C124.952 10.7096 125.058 10.5505 125.194 10.3821C125.33 10.211 125.515 10.0653 125.747 9.94502C125.98 9.82205 126.277 9.76057 126.638 9.76057C127.113 9.76057 127.542 9.8822 127.925 10.1255C128.31 10.3661 128.614 10.7229 128.839 11.1961C129.066 11.6666 129.18 12.244 129.18 12.9284C129.18 13.6047 129.069 14.1795 128.847 14.6527C128.625 15.1258 128.323 15.4867 127.941 15.7353C127.559 15.984 127.125 16.1083 126.642 16.1083C126.289 16.1083 125.996 16.0495 125.763 15.9318C125.531 15.8142 125.344 15.6725 125.202 15.5068C125.063 15.3384 124.955 15.1793 124.877 15.0296H124.793V16H123.365ZM124.789 12.9204C124.789 13.3187 124.845 13.6676 124.957 13.967C125.072 14.2664 125.237 14.5003 125.451 14.6687C125.667 14.8345 125.929 14.9173 126.237 14.9173C126.557 14.9173 126.826 14.8318 127.043 14.6607C127.259 14.4869 127.422 14.2503 127.532 13.9509C127.644 13.6489 127.7 13.3053 127.7 12.9204C127.7 12.5381 127.645 12.1986 127.536 11.9019C127.426 11.6051 127.263 11.3726 127.047 11.2041C126.83 11.0357 126.56 10.9515 126.237 10.9515C125.926 10.9515 125.663 11.033 125.447 11.1961C125.23 11.3592 125.066 11.5878 124.953 11.8818C124.844 12.1759 124.789 12.5221 124.789 12.9204ZM132.875 16.1203C132.273 16.1203 131.752 15.988 131.311 15.7233C130.87 15.4587 130.528 15.0884 130.284 14.6126C130.044 14.1367 129.923 13.5807 129.923 12.9444C129.923 12.3082 130.044 11.7508 130.284 11.2723C130.528 10.7938 130.87 10.4222 131.311 10.1575C131.752 9.89289 132.273 9.76057 132.875 9.76057C133.476 9.76057 133.997 9.89289 134.439 10.1575C134.88 10.4222 135.221 10.7938 135.461 11.2723C135.704 11.7508 135.826 12.3082 135.826 12.9444C135.826 13.5807 135.704 14.1367 135.461 14.6126C135.221 15.0884 134.88 15.4587 134.439 15.7233C133.997 15.988 133.476 16.1203 132.875 16.1203ZM132.883 14.9574C133.209 14.9574 133.482 14.8679 133.701 14.6888C133.92 14.507 134.083 14.2637 134.19 13.959C134.3 13.6542 134.354 13.3147 134.354 12.9404C134.354 12.5635 134.3 12.2227 134.19 11.9179C134.083 11.6105 133.92 11.3659 133.701 11.1841C133.482 11.0023 133.209 10.9114 132.883 10.9114C132.549 10.9114 132.271 11.0023 132.049 11.1841C131.829 11.3659 131.665 11.6105 131.555 11.9179C131.449 12.2227 131.395 12.5635 131.395 12.9404C131.395 13.3147 131.449 13.6542 131.555 13.959C131.665 14.2637 131.829 14.507 132.049 14.6888C132.271 14.8679 132.549 14.9574 132.883 14.9574Z" fill="black"/>
</svg>
